<svg width="28" height="28" viewBox="0 0 28 28" fill="none" xmlns="http://www.w3.org/2000/svg">
<path d="M25.2699 12.1796L24.1266 17.0563C23.1466 21.2679 21.2099 22.9713 17.5699 22.6213C16.9866 22.5746 16.3566 22.4696 15.6799 22.3063L13.7199 21.8396C8.85488 20.6846 7.34988 18.2813 8.49322 13.4046L9.63655 8.51627C9.86988 7.5246 10.1499 6.66127 10.4999 5.9496C11.8649 3.12627 14.1866 2.36794 18.0832 3.2896L20.0316 3.7446C24.9199 4.88794 26.4132 7.30294 25.2699 12.1796Z" stroke="#595959" stroke-width="1.5" stroke-linecap="round" stroke-linejoin="round"/>
<path d="M17.5704 22.6209C16.8471 23.1109 15.9371 23.5192 14.8287 23.8809L12.9854 24.4876C8.35373 25.9809 5.9154 24.7326 4.4104 20.1009L2.91706 15.4926C1.42373 10.8609 2.6604 8.41089 7.29206 6.91755L9.1354 6.31089C9.61373 6.15922 10.0687 6.03089 10.5004 5.94922C10.1504 6.66089 9.8704 7.52422 9.63706 8.51589L8.49373 13.4042C7.3504 18.2809 8.8554 20.6842 13.7204 21.8392L15.6804 22.3059C16.3571 22.4692 16.9871 22.5742 17.5704 22.6209Z" stroke="#595959" stroke-width="1.5" stroke-linecap="round" stroke-linejoin="round"/>
<path d="M17.6765 8.37207L22.5061 9.66617" stroke="#595959" stroke-width="1.5" stroke-linecap="round" stroke-linejoin="round"/>
<path d="M16.7058 11.9944L21.5354 13.2885" stroke="#595959" stroke-width="1.5" stroke-linecap="round" stroke-linejoin="round"/>
<path d="M15.6707 15.8579C17.7451 16.4138 20.5012 17.1522 20.5012 17.1522" stroke="#595959" stroke-width="1.5" stroke-linecap="round" stroke-linejoin="round"/>
<path d="M13.1852 7.74711L13.5595 8.3955L15.5047 7.27245M12.226 11.3267L12.6004 11.9751L14.5456 10.8521M11.2669 14.9063L11.6412 15.5547L13.5864 14.4317" stroke="#595959" stroke-width="0.952941" stroke-linecap="round" stroke-linejoin="round"/>
</svg>
