<svg width="16" height="16" viewBox="0 0 16 16" fill="none" xmlns="http://www.w3.org/2000/svg">
<path d="M5.05002 5.10557C4.50633 5.10557 3.98494 5.32151 3.60051 5.70617C3.21605 6.09017 3 6.61155 3 7.15545V12.6219C3 13.1658 3.21605 13.6873 3.60051 14.0712C3.98497 14.4559 4.50636 14.6718 5.05002 14.6718L11.2 14.6721C11.7437 14.6721 12.2651 14.4561 12.6495 14.0715C13.034 13.6875 13.25 13.1661 13.25 12.6222V7.15539C13.25 6.61149 13.034 6.09007 12.6495 5.7061C12.265 5.32144 11.7436 5.10551 11.2 5.10551H5.73348V4.0805C5.73235 3.47503 5.96096 2.8915 6.37302 2.44796C6.78509 2.00443 7.35005 1.73386 7.95392 1.69083C8.55782 1.64715 9.1556 1.83433 9.62672 2.21494C10.098 2.59485 10.4074 3.13945 10.4928 3.73883H11.1816C11.0956 2.95646 10.713 2.2376 10.1126 1.72841C9.51219 1.22003 8.73968 0.96099 7.95403 1.00477C7.16839 1.04845 6.42948 1.39227 5.88929 1.96413C5.3491 2.5361 5.04875 3.2939 5.05011 4.08035L5.05002 5.10557ZM11.2 5.78891C11.5625 5.78891 11.91 5.9331 12.1663 6.18931C12.4227 6.44552 12.5666 6.79344 12.5666 7.15559V12.6221C12.5666 12.9842 12.4227 13.332 12.1663 13.5884C11.91 13.8446 11.5624 13.9888 11.2 13.9888H5.05002C4.68752 13.9888 4.33997 13.8446 4.08365 13.5884C3.82731 13.3321 3.68337 12.9842 3.68337 12.6221V7.15559C3.68337 6.79344 3.82733 6.44566 4.08365 6.18931C4.33999 5.93308 4.68755 5.78891 5.05002 5.78891H11.2ZM8.12486 9.20562C8.3967 9.20562 8.65745 9.31359 8.84963 9.50563C9.04179 9.69836 9.14975 9.95867 9.14975 10.2306C9.14975 10.5026 9.04178 10.7629 8.84963 10.9556C8.65746 11.1476 8.39659 11.2556 8.12486 11.2556C7.85301 11.2556 7.59226 11.1476 7.40008 10.9556C7.20792 10.7628 7.09996 10.5025 7.09996 10.2306C7.09996 9.95864 7.20793 9.69835 7.40008 9.50563C7.59225 9.31357 7.85312 9.20562 8.12486 9.20562ZM8.12486 8.52228C7.67182 8.52228 7.23723 8.70199 6.91685 9.02251C6.59648 9.34303 6.4165 9.77759 6.4165 10.2306C6.4165 10.6837 6.59645 11.1183 6.91685 11.4387C7.23726 11.7592 7.67184 11.939 8.12486 11.939C8.57787 11.939 9.01248 11.7593 9.33286 11.4387C9.65326 11.1183 9.83321 10.6837 9.83321 10.2306C9.83321 9.77759 9.65326 9.343 9.33286 9.02251C9.01245 8.70202 8.57787 8.52228 8.12486 8.52228Z" fill="#595959"/>
</svg>
