<svg width="14" height="15" viewBox="0 0 14 15" fill="none" xmlns="http://www.w3.org/2000/svg">
<path d="M9.93707 14.9876H3.39247C2.80274 14.987 2.23735 14.7524 1.8203 14.3355C1.40325 13.9185 1.1686 13.3532 1.1678 12.7635V2.98903H0.415925C0.360094 2.99097 0.304446 2.98164 0.252296 2.96161C0.200146 2.94158 0.152563 2.91126 0.112383 2.87245C0.0722028 2.83364 0.0402481 2.78713 0.0184236 2.73571C-0.00340096 2.68428 -0.0146484 2.62899 -0.0146484 2.57313C-0.0146484 2.51726 -0.00340096 2.46197 0.0184236 2.41055C0.0402481 2.35912 0.0722028 2.31262 0.112383 2.27381C0.152563 2.23499 0.200146 2.20467 0.252296 2.18464C0.304446 2.16461 0.360094 2.15528 0.415925 2.15722H3.53435V1.64864C3.53435 1.21139 3.70805 0.792055 4.01723 0.482875C4.32641 0.173695 4.74575 0 5.18299 0L8.14755 0C8.36405 0 8.57843 0.0426433 8.77845 0.125495C8.97848 0.208347 9.16022 0.329785 9.31331 0.482875C9.4664 0.635966 9.58784 0.81771 9.67069 1.01773C9.75354 1.21775 9.79619 1.43214 9.79619 1.64864V2.15722H12.9141C12.9699 2.15528 13.0256 2.16461 13.0777 2.18464C13.1299 2.20467 13.1775 2.23499 13.2177 2.27381C13.2578 2.31262 13.2898 2.35912 13.3116 2.41055C13.3334 2.46197 13.3447 2.51726 13.3447 2.57313C13.3447 2.62899 13.3334 2.68428 13.3116 2.73571C13.2898 2.78713 13.2578 2.83364 13.2177 2.87245C13.1775 2.91126 13.1299 2.94158 13.0777 2.96161C13.0256 2.98164 12.9699 2.99097 12.9141 2.98903H12.1647V12.763C12.1641 13.3533 11.9291 13.9192 11.5114 14.3364C11.0936 14.7535 10.5274 14.9878 9.93707 14.9876ZM1.99812 2.98903V12.763C1.99865 13.1322 2.14558 13.4861 2.40669 13.7471C2.6678 14.0081 3.02177 14.1549 3.39097 14.1553H9.93557C10.3048 14.1549 10.6587 14.0081 10.9199 13.7471C11.181 13.4861 11.3279 13.1322 11.3284 12.763H11.3314V2.98903H1.99812ZM5.18099 0.832313C4.96483 0.832974 4.75773 0.919239 4.60502 1.07223C4.45231 1.22522 4.36643 1.43248 4.36617 1.64864V2.15722H8.96237V1.64864C8.96211 1.43222 8.87602 1.22474 8.72299 1.0717C8.56995 0.918668 8.36247 0.832578 8.14605 0.832313H5.18099ZM6.66277 12.6641C6.55213 12.6634 6.44626 12.6189 6.36835 12.5403C6.29044 12.4618 6.24685 12.3555 6.24711 12.2449V4.89596C6.24711 4.78559 6.29096 4.67974 6.369 4.60169C6.44705 4.52365 6.5529 4.4798 6.66327 4.4798C6.77364 4.4798 6.87949 4.52365 6.95754 4.60169C7.03558 4.67974 7.07943 4.78559 7.07943 4.89596V12.2484C7.07916 12.3584 7.03542 12.4638 6.95775 12.5417C6.88007 12.6195 6.77475 12.6635 6.66477 12.6641H6.66277ZM9.37753 12.2049C9.2672 12.2048 9.16143 12.1609 9.08341 12.0829C9.00539 12.0049 8.96151 11.8991 8.96137 11.7888V5.35258C8.96137 5.24221 9.00522 5.13636 9.08326 5.05832C9.16131 4.98027 9.26716 4.93643 9.37753 4.93643C9.4879 4.93643 9.59375 4.98027 9.6718 5.05832C9.74984 5.13636 9.79369 5.24221 9.79369 5.35258V11.7903C9.79329 11.9001 9.74957 12.0053 9.67201 12.083C9.59445 12.1608 9.48934 12.2048 9.37953 12.2054L9.37753 12.2049ZM3.94801 12.2049C3.83777 12.2047 3.73212 12.1607 3.65421 12.0827C3.5763 12.0047 3.53249 11.899 3.53235 11.7888V5.35258C3.53235 5.24221 3.5762 5.13636 3.65424 5.05832C3.73229 4.98027 3.83814 4.93643 3.94851 4.93643C4.05888 4.93643 4.16473 4.98027 4.24278 5.05832C4.32082 5.13636 4.36467 5.24221 4.36467 5.35258V11.7903C4.36427 11.9002 4.32048 12.0055 4.24281 12.0832C4.16515 12.161 4.05991 12.2049 3.95001 12.2054L3.94801 12.2049Z" fill="#003DA5"/>
</svg>
