<svg width="17" height="19" viewBox="0 0 17 19" fill="none" xmlns="http://www.w3.org/2000/svg">
<g id="Frame 514448">
<path id="Shape" d="M16.6166 15.1903L16.6166 11.2471C16.6166 11.1288 16.5695 11.0153 16.4859 10.9316C16.4022 10.848 16.2887 10.801 16.1704 10.801C16.052 10.801 15.9385 10.848 15.8549 10.9316C15.7712 11.0153 15.7242 11.1288 15.7242 11.2471L15.7242 15.1903C15.7154 15.7142 15.499 16.2132 15.1225 16.5777C14.746 16.9421 14.2403 17.1422 13.7163 17.134L3.90022 17.134C3.3763 17.1422 2.87055 16.9421 2.49407 16.5777C2.11759 16.2132 1.90118 15.7142 1.89237 15.1903L1.89237 11.183C1.89032 11.0665 1.84224 10.9555 1.75865 10.8743C1.67505 10.7931 1.56272 10.7483 1.44619 10.7496C1.32961 10.7481 1.2172 10.7929 1.13357 10.8741C1.04994 10.9554 1.00191 11.0664 1 11.183L1 15.1903C1.01292 15.9472 1.3255 16.6681 1.86919 17.1949C2.41288 17.7216 3.14329 18.0112 3.90022 18.0002L13.7163 18.0002C14.4733 18.0112 15.2037 17.7216 15.7474 17.1949C16.2911 16.6681 16.6036 15.9472 16.6166 15.1903Z" fill="#ACACAC" stroke="#ACACAC" stroke-width="0.5"/>
<path id="Shape_2" d="M1.86982 1.80563C1.32613 2.33239 1.01355 3.05327 1.00064 3.81017L1.00064 7.43196L1.00064 11.0538C1.00064 11.1721 1.04764 11.2856 1.13132 11.3693C1.215 11.4529 1.32848 11.4999 1.44682 11.4999C1.56516 11.4999 1.67865 11.4529 1.76232 11.3693C1.846 11.2856 1.89301 11.1721 1.89301 11.0538L1.89301 3.81017C1.90181 3.28626 2.11823 2.78727 2.4947 2.42282C2.87118 2.05837 3.37693 1.85826 3.90085 1.86647L13.717 1.86647C14.2409 1.85826 14.7466 2.05837 15.1231 2.42282C15.4996 2.78727 15.716 3.28626 15.7248 3.81017L15.7242 12.9999C15.7263 13.1165 15.7743 13.2274 15.8579 13.3086C15.9415 13.3898 16.0539 13.4346 16.1704 13.4333C16.287 13.4348 16.3994 13.39 16.483 13.3088C16.5666 13.2276 16.6147 13.1165 16.6166 12.9999L16.6172 3.81017C16.6043 3.05327 16.2917 2.33239 15.748 1.80563C15.2043 1.27888 14.4739 0.989266 13.717 1.0003L3.90085 1.0003C3.14392 0.989265 2.41351 1.27888 1.86982 1.80563Z" fill="#ACACAC" stroke="#ACACAC" stroke-width="0.5"/>
<g id="icon/exit">
<path id="Shape_3" d="M12.0937 7.27674C12.0938 7.33542 12.0831 7.39353 12.0622 7.44766C12.0412 7.50178 12.0105 7.55082 11.9718 7.5919C11.8936 7.67517 11.7883 7.72182 11.6786 7.72182C11.5689 7.72182 11.4636 7.67517 11.3854 7.5919L9.45957 5.52059L9.45957 14.5549C9.4589 14.673 9.4152 14.786 9.33798 14.8693C9.26076 14.9527 9.15628 14.9996 9.04728 14.9999C8.99292 15.001 8.9389 14.9902 8.88843 14.9683C8.83797 14.9464 8.79208 14.9137 8.75349 14.8722C8.7149 14.8307 8.68439 14.7813 8.66378 14.7268C8.64316 14.6722 8.63286 14.6138 8.63348 14.5549L8.63348 5.52114L6.70866 7.5919C6.63051 7.67513 6.5253 7.72178 6.4157 7.72178C6.3061 7.72178 6.20088 7.67513 6.12273 7.5919C6.08389 7.5509 6.05302 7.50189 6.03194 7.44777C6.01086 7.39364 6 7.33549 6 7.27674C6 7.218 6.01086 7.15985 6.03194 7.10572C6.05302 7.0516 6.08389 7.00259 6.12273 6.96159L8.75432 4.13184C8.79248 4.08967 8.83808 4.05624 8.88841 4.03357C8.93874 4.01089 8.99277 3.99942 9.04728 3.99983C9.15673 4.0011 9.26143 4.04844 9.33923 4.13184L11.9718 6.96214C12.0105 7.00315 12.0411 7.05211 12.0621 7.10613C12.083 7.16015 12.0937 7.21816 12.0937 7.27674Z" fill="#ACACAC" stroke="#ACACAC" stroke-width="0.455176"/>
</g>
</g>
</svg>
