<svg width="18" height="20" viewBox="0 0 18 20" fill="none" xmlns="http://www.w3.org/2000/svg">
<g id="Clip path group">
<mask id="mask0_5049_57336" style="mask-type:luminance" maskUnits="userSpaceOnUse" x="0" y="0" width="18" height="20">
<g id="clip-path">
<path id="Vector" d="M17.1199 0H0.119873V19.114H17.1199V0Z" fill="white"/>
</g>
</mask>
<g mask="url(#mask0_5049_57336)">
<g id="Icon/Delete">
<path id="Shape" d="M8.04653 15.0018C8.04617 15.1548 8.10573 15.3019 8.21255 15.4109C8.3194 15.52 8.46486 15.5819 8.61712 15.5828H8.61773L8.61999 15.5828L8.62048 15.5828C8.77194 15.5821 8.91673 15.5208 9.02333 15.4127C9.1299 15.3046 9.1897 15.1585 9.19006 15.0063V15.006V6.57186C9.19006 6.4191 9.1301 6.27237 9.02301 6.164C8.91588 6.05559 8.77032 5.99447 8.6183 5.99447C8.46627 5.99447 8.32071 6.05559 8.21358 6.164C8.10649 6.27237 8.04653 6.4191 8.04653 6.57186V15.0018ZM8.04653 15.0018L8.14653 15.002H8.04653V15.0018ZM6.93812 2.01034C6.71996 2.01105 6.51072 2.09916 6.35623 2.25578C6.20166 2.41247 6.11453 2.62499 6.11426 2.84689V3.33017H11.1246V2.84689C11.1243 2.62472 11.037 2.41197 10.8821 2.25524C10.7273 2.09856 10.5176 2.01063 10.2992 2.01034C10.2991 2.01034 10.2991 2.01034 10.2991 2.01034L6.93812 2.01034ZM6.93812 2.01034H6.93796V1.91034M6.93812 2.01034L6.93796 1.91034M6.93812 2.01034C6.93817 2.01034 6.93822 2.01034 6.93827 2.01034L6.93796 1.91034M6.93812 2.01034L6.93796 1.91034M4.91035 18.2483H4.91046H12.3295C13.0256 18.2484 13.6931 17.9689 14.1852 17.4715C14.6774 16.9742 14.9541 16.2997 14.9548 15.5964V15.5963V4.48437H15.7027C15.7789 4.4868 15.8549 4.47379 15.9261 4.44612C15.9978 4.41824 16.0632 4.37605 16.1184 4.32214C16.1735 4.26824 16.2173 4.20371 16.2472 4.13245C16.2771 4.06119 16.2925 3.98461 16.2925 3.90727C16.2925 3.82993 16.2771 3.75335 16.2472 3.68209C16.2173 3.61083 16.1735 3.54631 16.1184 3.4924C16.0632 3.43849 15.9978 3.3963 15.9261 3.36842C15.8549 3.34075 15.7789 3.32774 15.7027 3.33017H12.2698V2.84677C12.2698 2.58544 12.219 2.32665 12.1201 2.08515C12.0213 1.84365 11.8763 1.62415 11.6936 1.4392C11.5108 1.25424 11.2937 1.10746 11.0548 1.0073C10.8158 0.907136 10.5596 0.855566 10.3009 0.855566H6.94023C6.41765 0.855566 5.91672 1.06564 5.54757 1.4392C5.17846 1.81271 4.9713 2.31905 4.9713 2.84677V3.33017H1.53788C1.46161 3.32774 1.38566 3.34075 1.31448 3.36842C1.24274 3.3963 1.17735 3.43849 1.1222 3.4924C1.06705 3.54631 1.02326 3.61083 0.993369 3.68209C0.963482 3.75335 0.948096 3.82993 0.948096 3.90727C0.948096 3.98461 0.963482 4.06119 0.993369 4.13245C1.02326 4.20371 1.06705 4.26824 1.1222 4.32214C1.17735 4.37605 1.24274 4.41824 1.31448 4.44612C1.38566 4.47379 1.46162 4.4868 1.53788 4.48437H2.28854L2.28854 15.5969L2.28854 15.597C2.28948 16.2996 2.56574 16.9734 3.0571 17.4705C3.54851 17.9676 4.21496 18.2475 4.91035 18.2483ZM3.4298 4.48437H13.8102V15.4963H13.8069L13.8068 15.5962C13.8062 15.9936 13.6499 16.3743 13.3725 16.6549C13.0951 16.9355 12.7194 17.0931 12.3277 17.0935H4.90887C4.5172 17.0931 4.14145 16.9355 3.86408 16.6549C3.58668 16.3743 3.43037 15.9936 3.4298 15.5962V4.48437ZM11.1235 14.4788V14.4789C11.1236 14.6316 11.1836 14.7782 11.2907 14.8865C11.3947 14.9917 11.5349 15.0525 11.6821 15.056L11.6854 15.0568L11.6981 15.0567C11.8493 15.0558 11.9938 14.9945 12.1003 14.8866C12.2067 14.7786 12.2665 14.6328 12.267 14.4809V14.4805V7.09566C12.267 6.94291 12.207 6.79618 12.0999 6.68781C11.9928 6.5794 11.8473 6.51828 11.6952 6.51828C11.5432 6.51828 11.3976 6.5794 11.2905 6.68781C11.1834 6.79618 11.1235 6.94291 11.1235 7.09566V14.4788ZM4.96904 14.4788L4.96904 14.4789C4.96922 14.6315 5.02912 14.7779 5.13601 14.8862C5.2399 14.9915 5.37997 15.0523 5.52709 15.056L5.5303 15.0568L5.54298 15.0567C5.69432 15.056 5.83901 14.9948 5.94559 14.8868C6.05214 14.7789 6.11202 14.6329 6.11256 14.4809V14.4805V7.09566C6.11256 6.94291 6.05261 6.79618 5.94551 6.68781C5.83838 6.5794 5.69282 6.51828 5.5408 6.51828C5.38877 6.51828 5.24322 6.5794 5.13608 6.68781C5.02899 6.79618 4.96904 6.94291 4.96904 7.09566L4.96904 14.4788Z" fill="#ACACAC" stroke="#ACACAC" stroke-width="0.2"/>
</g>
</g>
</g>
</svg>
