<svg width="12" height="12" viewBox="0 0 12 12" fill="none" xmlns="http://www.w3.org/2000/svg">
<path d="M1.28559 11.0002C1.20977 10.9989 1.13737 10.9684 1.08354 10.915C1.05241 10.8838 1.02891 10.8459 1.01488 10.8041C1.00085 10.7624 0.996664 10.7179 1.00265 10.6743L1.42606 7.53835C1.43402 7.47637 1.4625 7.41884 1.50695 7.37491L7.22229 1.66057C7.42625 1.45268 7.66937 1.28727 7.93763 1.17389C8.20588 1.06052 8.49394 1.00142 8.78516 1.00003C9.07639 0.998627 9.365 1.05495 9.63433 1.16575C9.90366 1.27654 10.1484 1.43961 10.3543 1.64553C10.5602 1.85145 10.7233 2.09613 10.8342 2.36545C10.945 2.63477 11.0013 2.92338 11 3.2146C10.9986 3.50583 10.9395 3.79389 10.8262 4.06216C10.7129 4.33042 10.5475 4.57357 10.3396 4.77754L4.62392 10.4916C4.59773 10.5187 4.56633 10.5402 4.53162 10.5549C4.4969 10.5696 4.45957 10.5772 4.42187 10.5771C4.34578 10.5764 4.27305 10.5456 4.21949 10.4916L1.91771 8.18911L1.62179 10.3767L3.137 10.1723C3.17446 10.1672 3.21255 10.1696 3.24909 10.1793C3.28563 10.1889 3.31991 10.2057 3.34994 10.2287C3.37997 10.2516 3.40518 10.2803 3.4241 10.313C3.44303 10.3457 3.4553 10.3818 3.46022 10.4193C3.46527 10.4568 3.46289 10.4948 3.45321 10.5314C3.44352 10.5679 3.42673 10.6022 3.40379 10.6322C3.38084 10.6622 3.3522 10.6874 3.3195 10.7063C3.2868 10.7253 3.25069 10.7376 3.21323 10.7425L1.32354 10.9982C1.31096 10.9999 1.29827 11.0005 1.28559 11.0002ZM8.70123 3.72901L3.48585 8.94472L4.42387 9.88274L9.63958 4.66736L8.70123 3.72901ZM7.33314 2.36425L2.11743 7.5783L3.07709 8.53696L8.2928 3.32258L7.33314 2.36292V2.36425ZM8.78211 1.588C8.40319 1.5882 8.0361 1.71998 7.74356 1.96081L10.0404 4.2576C10.2986 3.94483 10.4311 3.54705 10.4119 3.1419C10.3926 2.73674 10.2232 2.35328 9.9365 2.06633C9.78512 1.91443 9.60519 1.79397 9.40708 1.71188C9.20896 1.62979 8.99656 1.58769 8.78211 1.588Z" fill="#003DA5" stroke="#003DA5" stroke-width="0.25"/>
</svg>
