<svg width="17" height="20" viewBox="0 0 17 20" fill="none" xmlns="http://www.w3.org/2000/svg">
<g id="Clip path group">
<mask id="mask0_5049_15143" style="mask-type:luminance" maskUnits="userSpaceOnUse" x="0" y="0" width="17" height="20">
<g id="clip-path">
<path id="Vector" d="M17 0H0V19.114H17V0Z" fill="white"/>
</g>
</mask>
<g mask="url(#mask0_5049_15143)">
<g id="Icon/Delete">
<path id="Shape" d="M7.92654 15.0018C7.92617 15.1548 7.98574 15.3019 8.09255 15.4109C8.19941 15.52 8.34486 15.5819 8.49713 15.5828H8.49773L8.5 15.5828L8.50048 15.5828C8.65194 15.5821 8.79673 15.5208 8.90334 15.4127C9.0099 15.3046 9.0697 15.1585 9.07006 15.0063V15.006V6.57186C9.07006 6.4191 9.01011 6.27237 8.90302 6.164C8.79588 6.05559 8.65033 5.99447 8.4983 5.99447C8.34627 5.99447 8.20072 6.05559 8.09359 6.164C7.98649 6.27237 7.92654 6.4191 7.92654 6.57186V15.0018ZM7.92654 15.0018L8.02654 15.002H7.92654V15.0018ZM6.81813 2.01034C6.59997 2.01105 6.39072 2.09916 6.23623 2.25578C6.08167 2.41247 5.99453 2.62499 5.99426 2.84689V3.33017H11.0046V2.84689C11.0043 2.62472 10.917 2.41197 10.7621 2.25524C10.6073 2.09856 10.3976 2.01063 10.1792 2.01034C10.1791 2.01034 10.1791 2.01034 10.1791 2.01034L6.81813 2.01034ZM6.81813 2.01034H6.81797V1.91034M6.81813 2.01034L6.81797 1.91034M6.81813 2.01034C6.81818 2.01034 6.81823 2.01034 6.81828 2.01034L6.81797 1.91034M6.81813 2.01034L6.81797 1.91034M4.79035 18.2483H4.79047H12.2095C12.9056 18.2484 13.5731 17.9689 14.0652 17.4715C14.5574 16.9742 14.8341 16.2997 14.8348 15.5964V15.5963V4.48437H15.5827C15.6589 4.4868 15.7349 4.47379 15.8061 4.44612C15.8778 4.41824 15.9432 4.37605 15.9984 4.32214C16.0535 4.26824 16.0973 4.20371 16.1272 4.13245C16.1571 4.06119 16.1725 3.98461 16.1725 3.90727C16.1725 3.82993 16.1571 3.75335 16.1272 3.68209C16.0973 3.61083 16.0535 3.54631 15.9984 3.4924C15.9432 3.43849 15.8778 3.3963 15.8061 3.36842C15.7349 3.34075 15.6589 3.32774 15.5827 3.33017H12.1498V2.84677C12.1498 2.58544 12.099 2.32665 12.0001 2.08515C11.9013 1.84365 11.7563 1.62415 11.5736 1.4392C11.3908 1.25424 11.1737 1.10746 10.9348 1.0073C10.6958 0.907136 10.4396 0.855566 10.1809 0.855566H6.82023C6.29766 0.855566 5.79673 1.06564 5.42757 1.4392C5.05846 1.81271 4.85131 2.31905 4.85131 2.84677V3.33017H1.41788C1.34162 3.32774 1.26566 3.34075 1.19449 3.36842C1.12274 3.3963 1.05736 3.43849 1.00221 3.4924C0.947055 3.54631 0.903261 3.61083 0.873374 3.68209C0.843487 3.75335 0.828101 3.82993 0.828101 3.90727C0.828101 3.98461 0.843487 4.06119 0.873374 4.13245C0.903261 4.20371 0.947055 4.26824 1.00221 4.32214C1.05736 4.37605 1.12274 4.41824 1.19449 4.44612C1.26567 4.47379 1.34162 4.4868 1.41788 4.48437H2.16855L2.16855 15.5969L2.16855 15.597C2.16948 16.2996 2.44574 16.9734 2.93711 17.4705C3.42851 17.9676 4.09496 18.2475 4.79035 18.2483ZM3.30981 4.48437H13.6902V15.4963H13.6869L13.6868 15.5962C13.6862 15.9936 13.5299 16.3743 13.2525 16.6549C12.9752 16.9355 12.5994 17.0931 12.2077 17.0935H4.78888C4.39721 17.0931 4.02145 16.9355 3.74409 16.6549C3.46668 16.3743 3.31037 15.9936 3.30981 15.5962V4.48437ZM11.0035 14.4788V14.4789C11.0037 14.6316 11.0637 14.7782 11.1707 14.8865C11.2747 14.9917 11.4149 15.0525 11.5622 15.056L11.5654 15.0568L11.5781 15.0567C11.7293 15.0558 11.8738 14.9945 11.9803 14.8866C12.0867 14.7786 12.1465 14.6328 12.147 14.4809V14.4805V7.09566C12.147 6.94291 12.087 6.79618 11.9799 6.68781C11.8728 6.5794 11.7273 6.51828 11.5752 6.51828C11.4232 6.51828 11.2776 6.5794 11.1705 6.68781C11.0634 6.79618 11.0035 6.94291 11.0035 7.09566V14.4788ZM4.84904 14.4788L4.84904 14.4789C4.84922 14.6315 4.90913 14.7779 5.01601 14.8862C5.1199 14.9915 5.25997 15.0523 5.4071 15.056L5.41031 15.0568L5.42299 15.0567C5.57433 15.056 5.71901 14.9948 5.8256 14.8868C5.93215 14.7789 5.99203 14.6329 5.99257 14.4809V14.4805V7.09566C5.99257 6.94291 5.93261 6.79618 5.82552 6.68781C5.71839 6.5794 5.57283 6.51828 5.4208 6.51828C5.26878 6.51828 5.12322 6.5794 5.01609 6.68781C4.909 6.79618 4.84904 6.94291 4.84904 7.09566L4.84904 14.4788Z" fill="#003DA5" stroke="#003DA5" stroke-width="0.2"/>
</g>
</g>
</g>
</svg>
