<svg width="22" height="22" viewBox="0 0 22 22" fill="none" xmlns="http://www.w3.org/2000/svg">
<path d="M11 0C4.93461 0 0 4.93454 0 11C0 17.0657 4.93454 22 11 22C17.0654 22 22 17.0655 22 11C21.9997 4.93433 17.0655 0 11 0ZM11 20.4218C5.80514 20.4218 1.57817 16.1951 1.57817 11C1.57817 5.80514 5.80485 1.57817 11 1.57817C16.1949 1.57817 20.4218 5.80486 20.4218 11C20.4218 16.1954 16.1951 20.4218 11 20.4218Z" fill="#FF0000"/>
<path d="M12.2308 15.7835C12.2308 16.4633 11.6798 17.0143 11.0003 17.0143C10.3205 17.0143 9.76953 16.4633 9.76953 15.7835C9.76953 15.1037 10.3205 14.5527 11.0003 14.5527C11.6798 14.5527 12.2308 15.1037 12.2308 15.7835Z" fill="#FF0000"/>
<path d="M11.0001 13.2666C11.5731 13.2666 12.0393 12.8004 12.0393 12.2274V6.50111C12.0393 5.92812 11.5731 5.46191 11.0001 5.46191C10.4271 5.46191 9.96094 5.92812 9.96094 6.50111V12.2274C9.96094 12.8004 10.4271 13.2666 11.0001 13.2666Z" fill="#FF0000"/>
</svg>
