<svg width="12" height="12" viewBox="0 0 12 12" fill="none" xmlns="http://www.w3.org/2000/svg">
<path d="M6.00008 4.29288C6.29986 4.29288 6.54288 4.04986 6.54288 3.75008C6.54288 3.4503 6.29986 3.20728 6.00008 3.20728C5.7003 3.20728 5.45728 3.4503 5.45728 3.75008C5.45728 4.04986 5.7003 4.29288 6.00008 4.29288Z" fill="#003DA5"/>
<path d="M6 1.04992C8.72933 1.04992 10.9499 3.27051 10.9499 5.99985C10.9499 8.72918 8.72933 10.9498 6 10.9498C3.27067 10.9498 1.04992 8.72933 1.04992 5.99985C1.04992 3.27036 3.27051 1.04992 6 1.04992ZM6 0.5C2.96242 0.5 0.5 2.96242 0.5 6C0.5 9.03758 2.96242 11.5 6 11.5C9.03758 11.5 11.5 9.03758 11.5 6C11.5 2.96242 9.03742 0.5 6 0.5Z" fill="#003DA5"/>
<path d="M6.38491 8.40769V5.13496C6.38491 4.92235 6.21256 4.75 5.99995 4.75C5.78734 4.75 5.61499 4.92235 5.61499 5.13496V8.40769C5.61499 8.6203 5.78734 8.79265 5.99995 8.79265C6.21256 8.79265 6.38491 8.6203 6.38491 8.40769Z" fill="#003DA5"/>
</svg>
