<svg width="12" height="14" viewBox="0 0 12 14" fill="none" xmlns="http://www.w3.org/2000/svg">
<path d="M3.86694 5.1326V4.99927V3.66606V3.66592H4.00028L3.86694 5.1326ZM3.86694 5.1326H4.00028M3.86694 5.1326H4.00028M4.00028 5.1326H9.33361C9.82858 5.1326 10.3035 5.32926 10.6536 5.67936L10.6536 5.67938M4.00028 5.1326L10.6536 5.67938M2.80029 5.1326H2.66696C2.17199 5.1326 1.6972 5.32926 1.34709 5.67936L1.34708 5.67938C0.99699 6.02936 0.800326 6.50414 0.800326 6.99923V11.6657C0.800326 12.1608 0.996982 12.6356 1.34708 12.9857L2.80029 5.1326ZM2.80029 5.1326V4.99926M2.80029 5.1326V4.99926M2.80029 4.99926V3.66595C2.80029 3.66594 2.80029 3.66593 2.80029 3.66592C2.80052 2.8179 3.13728 2.0047 3.73671 1.40483C4.33615 0.804952 5.14915 0.467559 5.99717 0.466709C6.84508 0.465859 7.65861 0.801654 8.25921 1.40022C8.66267 1.80669 8.95193 2.31243 9.09785 2.86633M2.80029 4.99926L9.09785 2.86633M10.6536 5.67938C11.0037 6.02936 11.2003 6.50414 11.2003 6.99923V11.6657C11.2003 12.1608 11.0037 12.6356 10.6536 12.9857V5.67938ZM9.09785 2.86633C9.13308 3.00336 9.11244 3.14892 9.04047 3.27097L9.09785 2.86633ZM9.89916 12.2315C9.89917 12.2314 9.89919 12.2314 9.8992 12.2314C10.0493 12.0814 10.1336 11.8779 10.1336 11.6657V6.99923C10.1336 6.78712 10.0493 6.58357 9.8992 6.43353L9.89916 12.2315ZM9.89916 12.2315C9.74919 12.3814 9.54577 12.4658 9.33362 12.4658H2.66688C2.45469 12.4658 2.25126 12.3814 2.10129 12.2314C1.95115 12.0814 1.86693 11.8779 1.86693 11.6657V6.99923C1.86693 6.78712 1.95116 6.58353 2.10133 6.43349C2.25134 6.2835 2.45478 6.19928 2.66688 6.19928H9.33362C9.54573 6.19928 9.74915 6.2835 9.89916 6.43349V12.2315ZM5.12936 8.69327L5.12936 8.69322C5.12 8.45765 5.20774 8.22854 5.37207 8.05957C5.53641 7.89059 5.76291 7.79647 5.99871 7.79921L6.00178 7.79917C6.23756 7.79645 6.46403 7.89057 6.62839 8.05957C6.79273 8.22855 6.88047 8.45764 6.8711 8.69321L6.87109 8.69328C6.86185 8.92879 6.75616 9.15014 6.57891 9.30564L6.53351 9.34548V9.40587V10.3325C6.53351 10.5231 6.4319 10.6992 6.26693 10.7944C6.10193 10.8897 5.89852 10.8897 5.73353 10.7944C5.56856 10.6992 5.46695 10.5231 5.46695 10.3325V9.40587V9.34548L5.42155 9.30565C5.24432 9.15016 5.13864 8.92878 5.12936 8.69327ZM2.66696 13.5323C2.17199 13.5323 1.6972 13.3357 1.34709 12.9857H10.6536C10.3034 13.3357 9.82866 13.5323 9.3337 13.5323H2.66696Z" fill="#595959" stroke="white" stroke-width="0.266667"/>
</svg>
