<svg width="16" height="16" viewBox="0 0 16 16" fill="none" xmlns="http://www.w3.org/2000/svg">
<path d="M5.2809 11.7552C5.2809 12.2154 4.90776 12.5885 4.44758 12.5885C3.9874 12.5885 3.61426 12.2154 3.61426 11.7552C3.61426 11.295 3.9874 10.9219 4.44758 10.9219C4.90776 10.9219 5.2809 11.295 5.2809 11.7552Z" fill="#003DA5"/>
<path d="M11.1149 5.9217C11.1149 6.38189 10.7417 6.75502 10.2816 6.75502C9.82138 6.75502 9.44824 6.38189 9.44824 5.9217C9.44824 5.46152 9.82138 5.08838 10.2816 5.08838C10.7417 5.08838 11.1149 5.46152 11.1149 5.9217Z" fill="#003DA5"/>
<path d="M7.19092 12.3773C7.29145 12.3606 7.36483 12.2737 7.36483 12.1718V11.3385C7.36483 11.2367 7.29117 11.1497 7.19092 11.1331L6.62526 11.0388C6.58954 10.9304 6.54583 10.8249 6.49403 10.7226L6.82736 10.2558C6.88651 10.173 6.87711 10.0594 6.80522 9.98727L6.21594 9.39799C6.14377 9.32582 6.03049 9.31652 5.94745 9.37586L5.48057 9.70919C5.37845 9.65738 5.2728 9.61358 5.16446 9.57796L5.07015 9.0123C5.0535 8.91176 4.96654 8.83838 4.8647 8.83838H4.03138C3.92954 8.83838 3.84258 8.91204 3.82593 9.0123L3.73163 9.57796C3.62328 9.61367 3.51753 9.65766 3.41551 9.70919L2.94864 9.37586C2.86586 9.31671 2.7523 9.3261 2.68014 9.39799L2.09086 9.98727C2.01869 10.0594 2.00939 10.1727 2.06873 10.2558L2.40206 10.7226C2.35025 10.8248 2.30645 10.9304 2.27083 11.0388L1.70517 11.1331C1.60463 11.1497 1.53125 11.2367 1.53125 11.3385V12.1718C1.53125 12.2737 1.60491 12.3606 1.70517 12.3773L2.27083 12.4716C2.30654 12.5799 2.35025 12.6854 2.40206 12.7877L2.06873 13.2546C2.00958 13.3373 2.01897 13.4509 2.09086 13.5231L2.68014 14.1123C2.75231 14.1845 2.86559 14.1936 2.94864 14.1345L3.41551 13.8012C3.51763 13.853 3.62329 13.8968 3.73163 13.9324L3.82593 14.498C3.84258 14.5986 3.92954 14.672 4.03138 14.672H4.8647C4.96654 14.672 5.0535 14.5983 5.07015 14.498L5.16446 13.9324C5.27281 13.8967 5.37827 13.8527 5.48057 13.8012L5.94745 14.1345C6.03022 14.1936 6.14378 14.1842 6.21594 14.1123L6.80522 13.5231C6.87739 13.4509 6.88669 13.3376 6.82736 13.2546L6.49403 12.7877C6.54583 12.6856 6.58963 12.5799 6.62526 12.4716L7.19092 12.3773ZM4.44809 13.0052C3.75875 13.0052 3.19811 12.4445 3.19811 11.7552C3.19811 11.0658 3.75875 10.5052 4.44809 10.5052C5.13744 10.5052 5.69808 11.0658 5.69808 11.7552C5.69808 12.4445 5.13744 13.0052 4.44809 13.0052Z" fill="#003DA5"/>
<path d="M10.2815 3.83838C9.13285 3.83838 8.19824 4.77299 8.19824 5.92168C8.19824 7.07038 9.13285 8.00499 10.2815 8.00499C11.4302 8.00499 12.3649 7.07038 12.3649 5.92168C12.3649 4.77299 11.4302 3.83838 10.2815 3.83838ZM10.2815 7.17167C9.5922 7.17167 9.03156 6.61103 9.03156 5.92168C9.03156 5.23234 9.5922 4.6717 10.2815 4.6717C10.9709 4.6717 11.5315 5.23234 11.5315 5.92168C11.5315 6.61103 10.9709 7.17167 10.2815 7.17167Z" fill="#003DA5"/>
<path d="M14.7018 5.093L13.6617 4.86179C13.599 4.66127 13.5182 4.46651 13.4209 4.28051L13.993 3.38152C14.0454 3.29921 14.0337 3.19142 13.9647 3.12241L13.0808 2.23858C13.0118 2.16957 12.904 2.15758 12.8217 2.21022L11.9227 2.78238C11.7365 2.685 11.542 2.60427 11.3415 2.5415L11.1104 1.50142C11.0893 1.40609 11.0047 1.33838 10.907 1.33838H9.65705C9.5594 1.33838 9.47476 1.40609 9.45365 1.50142L9.22263 2.5415C9.02211 2.60428 8.82735 2.685 8.64135 2.78238L7.74236 2.21022C7.66005 2.15786 7.55226 2.16957 7.48324 2.23858L6.59942 3.12241C6.53041 3.19141 6.51842 3.29921 6.57106 3.38152L7.14322 4.28051C7.04584 4.4667 6.96511 4.66127 6.90234 4.86179L5.86226 5.093C5.76693 5.11411 5.69922 5.19874 5.69922 5.2964V6.54638C5.69922 6.64404 5.76693 6.72867 5.86226 6.74978L6.90234 6.98099C6.96512 7.18151 7.04584 7.37627 7.14322 7.56227L6.57106 8.46126C6.5187 8.54357 6.53041 8.65136 6.59942 8.72037L7.48324 9.60419C7.55225 9.6732 7.66005 9.68492 7.74236 9.63256L8.64135 9.0604C8.82754 9.15778 9.0221 9.23851 9.22263 9.30128L9.45365 10.3414C9.47476 10.4367 9.5594 10.5044 9.65705 10.5044H10.907C11.0047 10.5044 11.0893 10.4367 11.1104 10.3414L11.3415 9.30128C11.542 9.2385 11.7367 9.15777 11.9227 9.0604L12.8217 9.63256C12.904 9.68492 13.0118 9.6732 13.0808 9.60419L13.9647 8.72037C14.0337 8.65136 14.0457 8.54357 13.993 8.46126L13.4209 7.56227C13.5182 7.37607 13.599 7.18151 13.6617 6.98099L14.7018 6.74978C14.7972 6.72867 14.8649 6.64404 14.8649 6.54638V5.2964C14.8649 5.19874 14.7972 5.11411 14.7018 5.093ZM10.2817 8.42128C8.90331 8.42128 7.78168 7.29966 7.78168 5.92132C7.78168 4.54298 8.90331 3.42135 10.2817 3.42135C11.66 3.42135 12.7816 4.54298 12.7816 5.92132C12.7816 7.29966 11.66 8.42128 10.2817 8.42128Z" fill="#003DA5"/>
<path d="M10.1918 10.9437C10.0886 10.8924 9.96364 10.9346 9.91257 11.0375C9.43267 12.0033 8.51807 12.7109 7.46665 12.9304C7.35393 12.9538 7.28176 13.0642 7.3052 13.1768C7.32575 13.275 7.41225 13.3427 7.50888 13.3427C7.52292 13.3427 7.53724 13.3411 7.55157 13.3382C8.13675 13.2161 8.69636 12.9565 9.17005 12.5875C9.63721 12.2235 10.0229 11.7516 10.2856 11.223C10.337 11.1198 10.2947 10.9948 10.1919 10.9438L10.1918 10.9437Z" fill="#003DA5"/>
<path d="M3.02621 8.89824C3.04054 8.90141 3.05486 8.90271 3.0689 8.90271C3.16553 8.90271 3.25221 8.83528 3.27258 8.73679C3.49208 7.68528 4.19967 6.77067 5.16551 6.29087C5.26865 6.23953 5.3106 6.11453 5.25926 6.01166C5.20792 5.90852 5.08292 5.86657 4.98005 5.91791C4.45113 6.18064 3.97932 6.56661 3.6155 7.03349C3.24645 7.50689 2.98689 8.06659 2.86477 8.65197C2.84133 8.76469 2.9135 8.8749 3.02622 8.89834L3.02621 8.89824Z" fill="#003DA5"/>
</svg>
