<svg width="78" height="57" viewBox="0 0 78 57" fill="none" xmlns="http://www.w3.org/2000/svg">
<path d="M62.3194 30.8333C60.9105 44.9741 48.305 55.2953 34.164 53.8864C20.0232 52.4776 9.70221 39.8721 11.1111 25.7313C12.52 11.5906 25.1252 1.26886 39.266 2.67773C53.407 4.08663 63.7282 16.6925 62.3194 30.8333Z" stroke="#003DA5" stroke-width="0.6525" stroke-miterlimit="10" stroke-dasharray="1.3 1.3"/>
<path d="M44.5152 39.81H27.5176V19.0388H41.7965L44.5152 21.7738V39.81Z" fill="#003DA5"/>
<path d="M44.5152 39.81H27.5176V19.0388H41.7965L44.5152 21.7738V39.81Z" stroke="#003DA5" stroke-width="0.6525" stroke-miterlimit="10"/>
<path d="M43.4285 20.4689H48.5398V36.7814H30.9584V15.2489H43.3907L43.3198 20.3586L43.3182 20.4689H43.4285Z" fill="white" stroke="#003DA5" stroke-width="0.2175"/>
<path d="M48.6485 36.8901H30.8496V15.1401H43.5009L43.4285 20.3601H48.6485V36.8901Z" stroke="#003DA5" stroke-width="0.6525" stroke-miterlimit="10"/>
<path d="M43.5859 15.0764L48.7398 20.2585Z" fill="white"/>
<path d="M43.5859 15.0764L48.7398 20.2585" stroke="#003DA5" stroke-width="0.6525" stroke-miterlimit="10"/>
<path d="M45.4583 25.2539H33.6406V24.3112H45.4583V25.2539Z" fill="#003DA5"/>
<path d="M45.4583 28.1538H33.6406V27.2112H45.4583V28.1538Z" fill="#003DA5"/>
<path d="M45.4583 31.0541H33.6406V30.1115H45.4583V31.0541Z" fill="#003DA5"/>
<path d="M37.7005 21.375H33.6406V17.3151H37.7005V21.375Z" fill="#003DA5"/>
<path d="M5.34731 25.5611L5.43263 25.5707L5.46176 25.4899C6.19468 23.4587 8.14113 22.0065 10.4248 22.0065C12.7524 22.0065 14.7294 23.5147 15.4301 25.6087L15.4617 25.703L15.5585 25.68C15.8911 25.6006 16.2378 25.56 16.5929 25.56C19.1029 25.56 21.1374 27.5929 21.1374 30.1025C21.1374 32.6124 19.1028 34.6472 16.5929 34.6472H5.30749C2.79956 34.6472 0.765 32.6125 0.765 30.1025C0.765 27.5928 2.7995 25.56 5.30749 25.56L5.31038 25.56C5.32827 25.56 5.33787 25.56 5.34731 25.5611Z" fill="#003DA5" stroke="#003DA5" stroke-width="0.2175"/>
<path d="M21.2461 30.1025C21.2461 32.6725 19.1629 34.7559 16.5929 34.7559H5.30749C2.73946 34.7559 0.65625 32.6725 0.65625 30.1025C0.65625 27.5328 2.73946 25.4513 5.30749 25.4513C5.32489 25.4513 5.34207 25.4511 5.35947 25.453C6.10745 23.38 8.09388 21.8978 10.4248 21.8978C12.8006 21.8978 14.8181 23.4372 15.5333 25.5742C15.8743 25.4928 16.2295 25.4513 16.5929 25.4513C19.1629 25.4513 21.2461 27.5328 21.2461 30.1025Z" fill="#003DA5" stroke="#003DA5" stroke-width="0.6525" stroke-miterlimit="10"/>
<path d="M57.8955 34.9805L57.98 34.9891L58.0088 34.9092C58.909 32.4151 61.2991 30.6315 64.1035 30.6315C66.962 30.6315 69.3897 32.4835 70.25 35.0549L70.2816 35.1493L70.3784 35.1262C70.7873 35.0286 71.2134 34.9788 71.6501 34.9788C74.7341 34.9788 77.234 37.4767 77.234 40.5605C77.234 43.6445 74.734 46.1449 71.6501 46.1449H57.843C54.7611 46.1449 52.2611 43.6445 52.2611 40.5605C52.2611 37.4767 54.761 34.9788 57.843 34.9788C57.865 34.9788 57.8806 34.9789 57.8955 34.9805Z" fill="#003DA5" stroke="#003DA5" stroke-width="0.2175"/>
<path d="M77.3428 40.5605C77.3428 43.7045 74.7941 46.2536 71.6501 46.2536H57.843C54.701 46.2536 52.1523 43.7045 52.1523 40.5605C52.1523 37.4166 54.701 34.8701 57.843 34.8701C57.8641 34.8701 57.8852 34.8701 57.9065 34.8723C58.8218 32.3364 61.2519 30.5227 64.1035 30.5227C67.0102 30.5227 69.4784 32.406 70.3532 35.0204C70.7706 34.9208 71.2051 34.8701 71.6501 34.8701C74.7941 34.8701 77.3428 37.4166 77.3428 40.5605Z" stroke="#003DA5" stroke-width="0.6525" stroke-miterlimit="10"/>
<path d="M64.3077 40.0414C64.4602 40.0414 64.5841 39.9176 64.5841 39.7649V35.7834C64.5841 35.6309 64.4602 35.5069 64.3077 35.5069C64.155 35.5069 64.0312 35.6309 64.0312 35.7834V39.7649C64.0312 39.9176 64.155 40.0414 64.3077 40.0414Z" fill="white"/>
<path d="M66.6252 36.1327C66.733 36.0248 66.733 35.8497 66.6252 35.7418L64.505 33.6214C64.3971 33.5136 64.222 33.5136 64.1141 33.6214C64.0062 33.7293 64.0062 33.9046 64.1141 34.0125L66.2341 36.1327C66.342 36.2406 66.5173 36.2406 66.6252 36.1327Z" fill="white"/>
<path d="M64.5041 33.6213C64.3962 33.5135 64.2209 33.5135 64.113 33.6213L61.993 35.7415C61.8851 35.8494 61.8851 36.0247 61.993 36.1326C62.1009 36.2405 62.276 36.2405 62.3839 36.1326L64.5041 34.0124C64.6119 33.9045 64.6119 33.7292 64.5041 33.6213Z" fill="white"/>
<path d="M64.6105 40.6375C64.6105 40.8013 64.4778 40.9337 64.314 40.9337C64.1505 40.9337 64.0176 40.8013 64.0176 40.6375C64.0176 40.474 64.1505 40.3413 64.314 40.3413C64.4778 40.3413 64.6105 40.474 64.6105 40.6375Z" fill="white"/>
<path d="M64.5229 41.5302C64.5229 41.6459 64.4287 41.7399 64.313 41.7399C64.1973 41.7399 64.1035 41.6459 64.1035 41.5302C64.1035 41.4145 64.1973 41.3205 64.313 41.3205C64.4287 41.3205 64.5229 41.4145 64.5229 41.5302Z" fill="white"/>
<path d="M64.4383 42.2042C64.4383 42.2727 64.3826 42.3286 64.3139 42.3286C64.2451 42.3286 64.1895 42.2727 64.1895 42.2042C64.1895 42.1356 64.2451 42.0797 64.3139 42.0797C64.3826 42.0797 64.4383 42.1356 64.4383 42.2042Z" fill="white"/>
<path d="M10.4836 29.2865C10.5898 29.2865 10.6762 29.2003 10.6762 29.0939V26.3202C10.6762 26.214 10.5898 26.1277 10.4836 26.1277C10.3772 26.1277 10.291 26.214 10.291 26.3202V29.0939C10.291 29.2003 10.3772 29.2865 10.4836 29.2865Z" fill="white"/>
<path d="M12.0966 26.5638C12.1718 26.4886 12.1718 26.3667 12.0966 26.2915L10.6197 24.8144C10.5445 24.7392 10.4225 24.7392 10.3474 24.8144C10.2722 24.8895 10.2722 25.0116 10.3474 25.0868L11.8242 26.5638C11.8994 26.6389 12.0215 26.6389 12.0966 26.5638Z" fill="white"/>
<path d="M10.6201 24.8143C10.5449 24.7391 10.4228 24.7391 10.3477 24.8143L8.87082 26.2913C8.79567 26.3664 8.79567 26.4886 8.87082 26.5637C8.94597 26.6389 9.06794 26.6389 9.14309 26.5637L10.6201 25.0867C10.6952 25.0116 10.6952 24.8895 10.6201 24.8143Z" fill="white"/>
<path d="M10.6943 29.7021C10.6943 29.8162 10.6019 29.9084 10.4878 29.9084C10.3738 29.9084 10.2812 29.8162 10.2812 29.7021C10.2812 29.5881 10.3738 29.4957 10.4878 29.4957C10.6019 29.4957 10.6943 29.5881 10.6943 29.7021Z" fill="white"/>
<path d="M10.6339 30.3237C10.6339 30.4043 10.5683 30.4698 10.4877 30.4698C10.4071 30.4698 10.3418 30.4043 10.3418 30.3237C10.3418 30.2431 10.4071 30.1776 10.4877 30.1776C10.5683 30.1776 10.6339 30.2431 10.6339 30.3237Z" fill="white"/>
<path d="M10.5737 30.7933C10.5737 30.841 10.5349 30.8799 10.4871 30.8799C10.4392 30.8799 10.4004 30.841 10.4004 30.7933C10.4004 30.7455 10.4392 30.7066 10.4871 30.7066C10.5349 30.7066 10.5737 30.7455 10.5737 30.7933Z" fill="white"/>
</svg>
