<svg xmlns="http://www.w3.org/2000/svg" width="48" height="48" viewBox="0 0 48 48" version="1.1"><path d="" stroke="none" fill="#186cb4" fill-rule="evenodd"/><path d="M 9.200 5.200 C 7.512 6.888, 7.512 41.112, 9.200 42.800 C 10.869 44.469, 37.131 44.469, 38.800 42.800 C 39.585 42.015, 40 37.867, 40 30.800 L 40 20 34 20 C 25.826 20, 24 18.174, 24 10 L 24 4 17.200 4 C 13.244 4, 9.898 4.502, 9.200 5.200 M 27 11 L 27 17 33.219 17 L 39.437 17 33.500 11 C 30.234 7.700, 27.436 5, 27.281 5 C 27.127 5, 27 7.700, 27 11 M 14.518 24.971 C 14.163 25.545, 14.502 26.255, 15.270 26.550 C 17.637 27.458, 32.998 26.561, 33.257 25.500 C 33.593 24.119, 15.363 23.604, 14.518 24.971 M 14.526 30.958 C 14.167 31.539, 14.525 32.264, 15.322 32.570 C 17.596 33.443, 25.500 32.612, 25.500 31.500 C 25.500 30.134, 15.345 29.633, 14.526 30.958 M 29.496 31.007 C 28.736 32.236, 31.488 33.434, 32.968 32.520 C 33.554 32.158, 33.774 31.443, 33.457 30.931 C 32.694 29.696, 30.277 29.742, 29.496 31.007 M 14.526 36.958 C 14.167 37.539, 14.525 38.264, 15.322 38.570 C 17.596 39.443, 25.500 38.612, 25.500 37.500 C 25.500 36.134, 15.345 35.633, 14.526 36.958 M 29.496 37.007 C 28.736 38.236, 31.488 39.434, 32.968 38.520 C 33.554 38.158, 33.774 37.443, 33.457 36.931 C 32.694 35.696, 30.277 35.742, 29.496 37.007" stroke="none" fill="#146cb4" fill-rule="evenodd"/></svg>