<svg width="7" height="13" viewBox="0 0 7 13" fill="none" xmlns="http://www.w3.org/2000/svg">
<path d="M6.59369 4.27674C6.59381 4.33542 6.58308 4.39353 6.56216 4.44766C6.54123 4.50178 6.51052 4.55082 6.47184 4.5919C6.3936 4.67517 6.2883 4.72182 6.17862 4.72182C6.06894 4.72182 5.96364 4.67517 5.8854 4.5919L3.95957 2.52059L3.95957 11.5549C3.9589 11.673 3.9152 11.786 3.83798 11.8693C3.76076 11.9527 3.65628 11.9996 3.54728 11.9999C3.49292 12.001 3.4389 11.9902 3.38843 11.9683C3.33797 11.9464 3.29208 11.9137 3.25349 11.8722C3.2149 11.8307 3.18439 11.7813 3.16378 11.7268C3.14316 11.6722 3.13286 11.6138 3.13348 11.5549L3.13348 2.52114L1.20866 4.5919C1.13051 4.67513 1.0253 4.72178 0.915696 4.72178C0.806097 4.72178 0.700884 4.67513 0.622732 4.5919C0.583889 4.5509 0.553018 4.50189 0.531939 4.44777C0.51086 4.39364 0.5 4.33549 0.5 4.27674C0.5 4.218 0.51086 4.15985 0.531939 4.10572C0.553018 4.05159 0.583889 4.00259 0.622732 3.96159L3.25432 1.13184C3.29248 1.08967 3.33808 1.05624 3.38841 1.03357C3.43874 1.01089 3.49277 0.999417 3.54728 0.999835C3.65673 1.0011 3.76143 1.04844 3.83923 1.13184L6.47184 3.96214C6.51046 4.00315 6.54113 4.05211 6.56206 4.10613C6.58298 4.16015 6.59374 4.21816 6.59369 4.27674Z" fill="#003DA5" stroke="#003DA5" stroke-width="0.455176"/>
</svg>
