<svg width="28" height="30" viewBox="0 0 28 30" fill="none" xmlns="http://www.w3.org/2000/svg">
<path d="M19.0672 7.21557L27.1506 9.26557M17.4339 13.6656L22.2672 14.8989M23.1006 25.3156C22.0672 26.0156 20.7672 26.5989 19.1839 27.1156L16.5506 27.9822C9.9339 30.1156 6.45057 28.3322 4.30057 21.7156L2.16724 15.1322C0.033902 8.51557 1.80057 5.01557 8.41723 2.88223L11.0506 2.01557C11.7339 1.7989 12.3839 1.61557 13.0006 1.4989C12.5006 2.51557 12.1006 3.7489 11.7672 5.16557L10.1339 12.1489C8.50057 19.1156 10.6506 22.5489 17.6006 24.1989L20.4006 24.8656C21.3672 25.0989 22.2672 25.2489 23.1006 25.3156Z" stroke="#595959" stroke-width="1.5" stroke-linecap="round" stroke-linejoin="round"/>
</svg>
